<svg width="1200" height="700" viewBox="0 0 1200 700" fill="none" xmlns="http://www.w3.org/2000/svg">
  <rect width="1200" height="700" fill="#050B14"/>

  <text x="70" y="80" fill="#EDF5FF" font-size="38" font-family="Arial" font-weight="700">
    Governance Nervous System
  </text>

  <text x="70" y="120" fill="#9FB0C7" font-size="20" font-family="Arial">
    Runtime governance architecture for AI-native enterprises
  </text>

  <rect x="450" y="170" width="300" height="90" rx="22" fill="#0F1D31" stroke="#38BDF8" stroke-width="2"/>
  <text x="520" y="223" fill="#EDF5FF" font-size="26" font-family="Arial" font-weight="700">
    Owner Intent
  </text>

  <line x1="600" y1="260" x2="600" y2="330" stroke="#38BDF8" stroke-width="3"/>

  <rect x="350" y="330" width="500" height="120" rx="28" fill="#13233A" stroke="#22C55E" stroke-width="3"/>
  <text x="430" y="390" fill="#EDF5FF" font-size="32" font-family="Arial" font-weight="700">
    Governance Nervous System
  </text>

  <text x="420" y="425" fill="#9FB0C7" font-size="18" font-family="Arial">
    Detection • Escalation • Containment • Auditability
  </text>

  <line x1="600" y1="450" x2="600" y2="520" stroke="#38BDF8" stroke-width="3"/>

  <rect x="120" y="520" width="220" height="90" rx="20" fill="#0F1D31" stroke="#38BDF8"/>
  <text x="175" y="575" fill="#EDF5FF" font-size="24" font-family="Arial" font-weight="700">
    AI Agents
  </text>

  <rect x="490" y="520" width="220" height="90" rx="20" fill="#0F1D31" stroke="#38BDF8"/>
  <text x="550" y="575" fill="#EDF5FF" font-size="24" font-family="Arial" font-weight="700">
    MCP Tools
  </text>

  <rect x="860" y="520" width="220" height="90" rx="20" fill="#0F1D31" stroke="#38BDF8"/>
  <text x="905" y="575" fill="#EDF5FF" font-size="24" font-family="Arial" font-weight="700">
    Workflows
  </text>

  <line x1="600" y1="520" x2="230" y2="520" stroke="#38BDF8" stroke-width="2"/>
  <line x1="600" y1="520" x2="970" y2="520" stroke="#38BDF8" stroke-width="2"/>

  <rect x="920" y="160" width="210" height="170" rx="18" fill="#0F1D31" stroke="#FACC15"/>
  <text x="955" y="200" fill="#FACC15" font-size="22" font-family="Arial" font-weight="700">
    Governance Signals
  </text>

  <text x="950" y="240" fill="#EDF5FF" font-size="16" font-family="Arial">• Drift Detection</text>
  <text x="950" y="268" fill="#EDF5FF" font-size="16" font-family="Arial">• Prompt Integrity</text>
  <text x="950" y="296" fill="#EDF5FF" font-size="16" font-family="Arial">• Human Override</text>

  <text x="70" y="660" fill="#718198" font-size="16" font-family="Arial">
    Responsible AI Business Architecture
  </text>
</svg>
