<svg width="1400" height="820" viewBox="0 0 1400 820" fill="none" xmlns="http://www.w3.org/2000/svg">
  <defs>
    <linearGradient id="bg" x1="0" y1="0" x2="1400" y2="820" gradientUnits="userSpaceOnUse">
      <stop stop-color="#07111F"/>
      <stop offset="1" stop-color="#040914"/>
    </linearGradient>
    <linearGradient id="core" x1="450" y1="300" x2="950" y2="470" gradientUnits="userSpaceOnUse">
      <stop stop-color="#132A46"/>
      <stop offset="1" stop-color="#102338"/>
    </linearGradient>
    <filter id="glow" x="0" y="0" width="200%" height="200%">
      <feGaussianBlur stdDeviation="12" result="coloredBlur"/>
      <feMerge>
        <feMergeNode in="coloredBlur"/>
        <feMergeNode in="SourceGraphic"/>
      </feMerge>
    </filter>
  </defs>

  <rect width="1400" height="820" fill="url(#bg)"/>

  <circle cx="170" cy="120" r="240" fill="#38BDF8" opacity="0.05"/>
  <circle cx="1240" cy="160" r="220" fill="#A78BFA" opacity="0.05"/>

  <text x="90" y="95" fill="#F8FBFF" font-size="52" font-family="Arial" font-weight="700">
    Governance Nervous System
  </text>

  <text x="92" y="138" fill="#8FA6C2" font-size="24" font-family="Arial">
    Runtime governance architecture for AI-native enterprises
  </text>

  <rect x="555" y="190" width="290" height="92" rx="24" fill="#0F1D31" stroke="#38BDF8" stroke-width="2.5"/>

  <text x="700" y="246" text-anchor="middle" fill="#EDF5FF" font-size="30" font-family="Arial" font-weight="700">
    Owner Intent
  </text>

  <line x1="700" y1="282" x2="700" y2="340" stroke="#38BDF8" stroke-width="3" opacity="0.8"/>

  <rect x="410" y="340" width="580" height="150" rx="34" fill="url(#core)" stroke="#22C55E" stroke-width="3" filter="url(#glow)"/>

  <text x="700" y="408" text-anchor="middle" fill="#F8FBFF" font-size="42" font-family="Arial" font-weight="700">
    Governance Nervous System
  </text>

  <text x="700" y="446" text-anchor="middle" fill="#9FB0C7" font-size="22" font-family="Arial">
    Detection • Escalation • Containment • Auditability
  </text>

  <line x1="700" y1="490" x2="700" y2="560" stroke="#38BDF8" stroke-width="3" opacity="0.8"/>

  <line x1="700" y1="560" x2="280" y2="560" stroke="#38BDF8" stroke-width="2" opacity="0.35"/>
  <line x1="700" y1="560" x2="700" y2="560" stroke="#38BDF8" stroke-width="2" opacity="0.35"/>
  <line x1="700" y1="560" x2="1120" y2="560" stroke="#38BDF8" stroke-width="2" opacity="0.35"/>

  <rect x="160" y="560" width="240" height="110" rx="24" fill="#0E1B2D" stroke="#38BDF8" stroke-width="2"/>
  <text x="280" y="625" text-anchor="middle" fill="#EDF5FF" font-size="30" font-family="Arial" font-weight="700">
    AI Agents
  </text>

  <rect x="580" y="560" width="240" height="110" rx="24" fill="#0E1B2D" stroke="#38BDF8" stroke-width="2"/>
  <text x="700" y="625" text-anchor="middle" fill="#EDF5FF" font-size="30" font-family="Arial" font-weight="700">
    MCP Tools
  </text>

  <rect x="1000" y="560" width="240" height="110" rx="24" fill="#0E1B2D" stroke="#38BDF8" stroke-width="2"/>
  <text x="1120" y="625" text-anchor="middle" fill="#EDF5FF" font-size="30" font-family="Arial" font-weight="700">
    Workflows
  </text>

  <rect x="1040" y="185" width="250" height="220" rx="24" fill="#101A2B" stroke="#FACC15" stroke-width="2"/>

  <text x="1165" y="235" text-anchor="middle" fill="#FACC15" font-size="28" font-family="Arial" font-weight="700">
    Governance Signals
  </text>

  <circle cx="1085" cy="285" r="6" fill="#22C55E"/>
  <text x="1105" y="291" fill="#EDF5FF" font-size="20" font-family="Arial">Drift Detection</text>

  <circle cx="1085" cy="327" r="6" fill="#38BDF8"/>
  <text x="1105" y="333" fill="#EDF5FF" font-size="20" font-family="Arial">Prompt Integrity</text>

  <circle cx="1085" cy="369" r="6" fill="#A78BFA"/>
  <text x="1105" y="375" fill="#EDF5FF" font-size="20" font-family="Arial">Human Override</text>

  <text x="90" y="760" fill="#60738C" font-size="18" font-family="Arial">
    Responsible AI Business Architecture
  </text>
</svg>
